<?xml version="1.0" encoding="utf-8" ?><svg xmlns="http://www.w3.org/2000/svg" xmlns:xlink="http://www.w3.org/1999/xlink" width="1024" height="1024" viewBox="0 0 1024 1024"><path fill="#2a2e36" d="M174.846 88.706C180.825 87.5183 202.817 88.4719 209.724 88.4854L278.357 88.529L511.369 88.489L746.115 88.551L815.259 88.5244C827.803 88.4965 842.203 87.7463 854.623 89.0213C896.652 93.3357 931.652 130.066 935.1 171.98C936.152 184.766 935.555 198.98 935.568 211.707L935.642 286.872L935.539 533.194L935.519 752.079L935.549 816.87C935.554 825.051 936.026 843.567 935.121 851.25C932.913 869.021 925.709 885.801 914.344 899.641C897.721 919.773 875.526 929.678 849.935 932.15C840.122 933.392 823.192 932.502 813.05 932.501L739.764 932.496L504.968 932.493L276.926 932.464L209.178 932.41C197.768 932.402 180.534 932.91 169.72 931.669C152.965 929.71 137.122 922.99 124.067 912.306C104.653 896.696 92.3657 874.498 90.1569 849.755C89.0052 836.853 89.4847 820.999 89.497 807.875L89.5148 736.657L89.5031 501.484L89.501 276.399L89.5099 206.812C89.5135 195.657 88.6374 181.178 89.9508 170.3C95.483 124.483 130.728 93.2649 174.846 88.706Z"/><path fill="#08090a" d="M269.438 109.269C269.929 109.254 270.42 109.244 270.911 109.239C312.824 108.817 355.297 109.406 397.248 109.392L672.337 109.346L788.15 109.315C801.772 109.207 815.394 109.184 829.016 109.246C835.809 109.287 845.145 109.047 851.754 109.938C878.353 113.524 906.574 137.186 912.464 163.812C916.531 182.195 914.866 209.276 914.848 228.908L915.121 313.75L915.139 694.155L914.923 796.014L914.959 827.284C914.963 835.182 915.134 844.506 913.942 852.235C911.639 867.038 904.64 880.709 893.976 891.232C884.062 901.051 871.637 907.953 858.062 911.182C847.366 913.701 827.123 913 815.245 913L757.75 912.974L346.591 913.201L231.327 912.965L195.128 912.805C187.796 912.758 178.408 913.082 171.255 911.945C136.45 906.411 109.493 876.41 109.485 840.828C109.481 821.956 109.486 803.015 109.512 784.12L109.521 684.937L109.539 386.15L109.498 241.564L109.471 198.74C109.481 170.776 109.654 153.909 130.253 132.208C154.606 106.553 179.654 109.36 211.587 109.361C230.871 109.443 250.155 109.412 269.438 109.269Z"/><path fill="#4ade80" d="M585.745 229.75L817.059 229.937C817.616 274.779 817.081 320.635 817.047 365.559L817.011 640.598L439.125 640.522L207.269 640.617L207.1 229.922L585.745 229.75Z"/><path fill="#08090a" d="M219.593 242.655L804.024 242.927L804.086 305.131L558.998 305.263L559.019 318.2L804.157 318.052L804.003 627.756L709.864 627.634L709.904 574.484L741.315 574.49C741.528 562.857 741.171 550.157 741.136 538.397L740.974 461.653C730.817 461.462 720.08 461.623 709.879 461.63L709.858 416.491C702.053 409.91 694.353 402.453 686.851 395.456C676.677 385.946 664.131 373.541 653.862 364.804C639.826 364.405 624.059 364.683 609.9 364.687L526.003 364.915L526.062 316.71C526.066 308.639 526.462 300.213 525.625 292.22C524.108 277.739 499.885 277.519 497.919 291.319C496.846 298.855 497.407 308.808 497.422 316.626L497.524 364.762C455.316 364.112 411.433 364.668 369.165 364.875C361.036 371.837 352.299 380.688 344.429 388.186C334.719 397.437 322.81 407.67 313.717 417.281C313.441 431.879 313.662 446.955 313.713 461.59C303.27 461.555 292.827 461.584 282.385 461.676C282.047 499.252 281.921 536.829 282.007 574.407C292.517 574.421 303.027 574.379 313.536 574.281L313.492 627.859C302.912 627.519 290.832 627.762 280.115 627.753L219.951 627.795L219.811 318.089L466.471 318.015L466.427 305.453L219.588 305.326L219.593 242.655Z"/><path fill="#4ade80" d="M682.929 260.874C690.295 259.668 697.247 264.653 698.469 272.016C699.691 279.38 694.722 286.343 687.362 287.582C679.978 288.825 672.987 283.837 671.761 276.45C670.534 269.062 675.539 262.083 682.929 260.874Z"/><path fill="#4ade80" d="M724.107 261.75C728.703 260.261 733.746 261.374 737.289 264.66C740.831 267.947 742.319 272.892 741.178 277.587C740.036 282.283 736.444 285.993 731.789 287.287C724.798 289.229 717.537 285.227 715.447 278.279C713.357 271.331 717.205 263.987 724.107 261.75Z"/><path fill="#4ade80" d="M768.182 260.968C775.332 259.687 782.184 264.392 783.555 271.526C784.927 278.659 780.309 285.569 773.194 287.031C768.511 287.994 763.671 286.363 760.526 282.761C757.381 279.159 756.416 274.144 758.001 269.633C759.586 265.121 763.476 261.811 768.182 260.968Z"/><path fill="#08090a" d="M346.59 415.499L677.058 415.507L676.754 627.915L346.871 627.953L346.59 415.499Z"/><path fill="#4ade80" d="M431.551 435.58L440.985 435.582L441.007 451.174C469.381 452.245 489.022 475.261 493.204 502.138C497.26 502.066 501.378 502.077 505.44 502.051C505.453 505.556 505.444 507.031 504.916 510.483L493.588 510.568C489.162 541.113 471.742 559.762 441.167 564.745C441.203 568.478 441.508 574.107 440.963 577.549L431.597 577.521L431.54 564.664C421.792 563.989 409.598 558.552 401.944 552.6C387.625 541.463 381.946 527.785 379.571 510.392L366.551 510.454L366.58 501.957L379.999 501.998C384.987 473.528 402.259 454.374 431.54 450.423L431.551 435.58Z"/><path fill="#08090a" d="M429.198 458.552L430.869 458.559C432.155 460.325 431.65 471.576 431.643 474.735L441.03 474.792L440.997 458.698C465.97 463.321 480.547 477.186 485.101 502.246C481.478 502.173 477.719 502.268 474.083 502.312L474.151 510.238L485.159 510.284C483.78 533.443 470.162 547.88 448.785 555.068C446.907 555.716 443.41 556.409 441.366 556.878L441.209 546.555L431.738 546.561L431.598 556.858C406.167 551.242 391.118 536.358 387.492 510.292L399.029 510.256L399.012 502.078C395.383 501.995 391.432 502.099 387.777 502.126C392.512 477.255 404.723 464.958 429.198 458.552Z"/><path fill="#4ade80" d="M415.597 489.995C429.274 489.808 443.341 489.975 457.049 489.972L457.066 531.005L415.508 530.997L415.597 489.995Z"/><path fill="#4ade80" d="M551.604 463.518L632.243 463.51C632.802 490.837 632.287 519.972 632.284 547.445L551.615 547.385L551.604 463.518Z"/><path fill="#4ade80" d="M506.047 670.684C530.532 668.401 554.491 682.734 564.61 704.935C567.726 711.771 568.902 717.337 570.21 724.625C580.277 724.556 590.344 724.544 600.412 724.591L600.459 737.627L569.904 737.498C565.176 764.55 547.037 783.322 519.964 788.37C485.672 792.265 457.182 772.103 451.805 737.584L424.374 737.587L424.387 724.746C433.382 724.688 442.376 724.676 451.37 724.709C456.304 694.048 474.699 674.301 506.047 670.684Z"/><path fill="#4ade80" d="M323.022 670.708C355.841 670.667 378.29 692.899 383.062 724.614C393.489 724.549 403.916 724.579 414.342 724.704L414.403 737.656L382.702 737.566C381.509 757.241 366.924 773.918 350.342 783.073C328.782 793.563 303.234 790.086 285.026 774.529C273.311 764.434 266.055 750.123 264.835 734.707C263.766 718.647 269.142 702.824 279.774 690.739C291.776 677.142 305.239 671.79 323.022 670.708Z"/><path fill="#4ade80" d="M699.255 671.706C706.629 671.772 712.829 672.395 719.866 674.855C734.943 680.045 747.267 691.135 754.014 705.582C773.412 746.635 739.787 791.456 695.557 787.468C688.443 786.826 683.28 785.12 676.654 782.55C657.642 773.73 646.281 758.113 642.95 737.489L610.456 737.495L610.452 724.658L642.292 724.869C643.533 712.625 648.531 701.065 656.601 691.774C668.209 678.4 681.993 672.976 699.255 671.706Z"/><path fill="#08090a" d="M695.619 684.674C720.701 681.737 743.416 699.683 746.365 724.763C749.314 749.843 731.379 772.568 706.3 775.528C681.204 778.491 658.461 760.542 655.51 735.444C652.56 710.347 670.52 687.612 695.619 684.674Z"/></svg>